<?xml version="1.0" encoding="utf-8"?>
<!-- Generator: Adobe Illustrator 25.2.3, SVG Export Plug-In . SVG Version: 6.00 Build 0)  -->
<svg version="1.1" id="Capa_1" xmlns="http://www.w3.org/2000/svg" xmlns:xlink="http://www.w3.org/1999/xlink" x="0px" y="0px"
	 viewBox="0 0 512 512" style="enable-background:new 0 0 512 512;" xml:space="preserve">
<style type="text/css">
	.st0{fill:#0477BF;}
	.st1{display:none;}
	.st2{display:inline;fill:#CD916E;}
	.st3{fill:#03588C;}
	.st4{fill:#222222;}
</style>
<path class="st0" d="M491.9,287.2c-3.7,0.5-7.5,0.8-11.4,0.8c-35.7,0-65.9-23.4-76.3-55.6c-1.8-5.5-6.3-9.8-12-10.8
	c-59.3-11.3-104.1-63.3-104.1-125.9c0-26.3,7.9-50.7,21.5-71c3.2-4.8,0.5-11.3-5.2-12.4c-15.7-3.1-31.8-4.7-48.4-4.7
	C118.8,7.5,7.5,118.8,7.5,256S118.8,504.5,256,504.5c123.7,0,226-90,245.2-208.3C502.1,290.8,497.2,286.4,491.9,287.2z"/>
<g class="st1">
	<circle class="st2" cx="143.8" cy="175.8" r="32.1"/>
	<circle class="st2" cx="159.8" cy="336.2" r="24"/>
</g>
<g>
	<path class="st0" d="M359.2,72.5l-2.3,13.8c-1.9,11.3,4.5,22.4,15.3,26.5l20.4,7.6c13.4,5,28.3-2.8,31.8-16.7l7.3-29
		c4.5-18.1-12.4-34.2-30.2-28.9L376,53.4C367.3,56,360.7,63.4,359.2,72.5z"/>
	<path class="st0" d="M440.4,159.8l-9.7,4.8c-7.6,3.8-10.9,12.9-7.6,20.7l7.8,18.2c4.7,11,19.4,13.1,27.1,3.9l12.5-15
		c5.9-7.1,4.6-17.6-2.7-23.1l-10.6-8C452.3,157.7,445.8,157.1,440.4,159.8z"/>
</g>
<g>
	<path class="st3" d="M286.1,474.4c-137.2,0-248.5-111.3-248.5-248.5c0-61,22-116.8,58.4-160C41.9,111.5,7.5,179.7,7.5,256
		c0,137.2,111.3,248.5,248.5,248.5c76.3,0,144.5-34.3,190-88.4C402.8,452.5,347.1,474.4,286.1,474.4z"/>
	<path class="st3" d="M396.1,101.8c-13.4-5-21.4-18.9-19.1-33.1l2.7-16.4l-3.8,1.1c-8.8,2.6-15.3,10-16.8,19.1l-2.3,13.8
		c-1.9,11.3,4.5,22.4,15.3,26.5l20.4,7.6c10.8,4,22.4-0.3,28.4-9.3L396.1,101.8z"/>
	<path class="st3" d="M448,193.1l-8.8-20.6c-1.7-3.9-1.8-8-0.8-11.8l-7.7,3.9c-7.6,3.8-10.9,12.9-7.6,20.7l7.8,18.2
		c4.7,11,19.4,13.1,27.1,3.9l3.1-3.7C455.6,202.6,450.5,199,448,193.1z"/>
</g>
<g>
	<path class="st3" d="M160.8,190.9c-17.7,0-32.1-14.4-32.1-32.1c0-4.4,0.9-8.7,2.5-12.5c-11.5,4.9-19.6,16.3-19.6,29.5
		c0,17.7,14.4,32.1,32.1,32.1c13.3,0,24.7-8.1,29.5-19.6C169.5,190,165.2,190.9,160.8,190.9z"/>
	<path class="st3" d="M172.3,347.7c-13.3,0-24-10.8-24-24c0-3.4,0.7-6.6,2-9.5c-8.5,3.7-14.5,12.2-14.5,22.1c0,13.3,10.8,24,24,24
		c9.9,0,18.4-6,22.1-14.5C178.9,347,175.7,347.7,172.3,347.7z"/>
</g>
<circle class="st0" cx="312.1" cy="360.2" r="32.1"/>
<path class="st3" d="M329.1,375.2c-17.7,0-32.1-14.4-32.1-32.1c0-4.4,0.9-8.7,2.5-12.5c-11.5,4.9-19.6,16.3-19.6,29.5
	c0,17.7,14.4,32.1,32.1,32.1c13.3,0,24.7-8.1,29.5-19.6C337.8,374.3,333.6,375.2,329.1,375.2z"/>
<ellipse class="st0" cx="247.6" cy="216" rx="16" ry="16"/>
<path class="st4" d="M143.8,136.3c-21.8,0-39.6,17.7-39.6,39.6s17.7,39.6,39.6,39.6c21.8,0,39.6-17.7,39.6-39.6
	S165.6,136.3,143.8,136.3z M143.8,200.4c-13.5,0-24.6-11-24.6-24.6s11-24.6,24.6-24.6s24.6,11,24.6,24.6S157.3,200.4,143.8,200.4z"
	/>
<path class="st4" d="M272.5,360.2c0,21.8,17.7,39.6,39.6,39.6s39.6-17.7,39.6-39.6s-17.7-39.6-39.6-39.6S272.5,338.4,272.5,360.2z
	 M312.1,335.6c13.5,0,24.6,11,24.6,24.6s-11,24.6-24.6,24.6s-24.6-11-24.6-24.6C287.5,346.7,298.6,335.6,312.1,335.6z"/>
<path class="st4" d="M159.8,304.6c-17.4,0-31.5,14.2-31.5,31.5c0,17.4,14.2,31.5,31.5,31.5s31.5-14.2,31.5-31.5
	C191.4,318.8,177.2,304.6,159.8,304.6z M159.8,352.7c-9.1,0-16.5-7.4-16.5-16.5s7.4-16.5,16.5-16.5s16.5,7.4,16.5,16.5
	S168.9,352.7,159.8,352.7z"/>
<path class="st4" d="M224.5,215.9c0,13,10.6,23.5,23.5,23.5c13,0,23.5-10.6,23.5-23.5c0-13-10.6-23.5-23.5-23.5
	C235,192.4,224.5,202.9,224.5,215.9z M248,207.4c4.7,0,8.5,3.8,8.5,8.5s-3.8,8.5-8.5,8.5s-8.5-3.8-8.5-8.5S243.3,207.4,248,207.4z"
	/>
<path class="st4" d="M369.6,119.8l20.4,7.6c3.6,1.3,7.3,2,11.1,2c5.1,0,10.1-1.2,14.7-3.6c8-4.2,13.8-11.6,15.9-20.3l7.3-29
	c2.8-11.1-0.5-22.5-8.8-30.5c-8.3-7.9-19.8-10.7-30.9-7.4L374,46.2c-11.4,3.4-20.1,13.3-22.1,25L349.5,85
	C347.1,99.9,355.5,114.5,369.6,119.8z M364.3,87.5l2.3-13.8c1-6.2,5.6-11.3,11.6-13.1l25.3-7.6c1.6-0.5,3.2-0.7,4.8-0.7
	c4.2,0,8.2,1.6,11.3,4.6c4.4,4.2,6.1,10.1,4.6,16l-7.3,29c-1.2,4.6-4.1,8.4-8.4,10.6s-9,2.5-13.5,0.8l-20.4-7.6
	C367.4,103,363,95.3,364.3,87.5z"/>
<path class="st4" d="M427.3,157.9c-11.1,5.6-16,18.9-11.1,30.3l7.8,18.2c3.3,7.6,10.1,12.8,18.2,14c1.2,0.2,2.3,0.3,3.5,0.3
	c6.9,0,13.5-3,18-8.5l12.5-15c4.2-5,6.1-11.3,5.3-17.8c-0.8-6.5-4-12.2-9.3-16.1l-10.6-8c-7.2-5.4-16.6-6.2-24.6-2.2L427.3,157.9z
	 M443.7,166.5c1.2-0.6,2.5-0.9,3.8-0.9c1.8,0,3.6,0.6,5.1,1.7l10.6,8c1.9,1.4,3.1,3.5,3.4,5.8s-0.4,4.6-1.9,6.5l-12.5,15
	c-1.9,2.3-4.8,3.4-7.8,3s-5.4-2.3-6.6-5.1l-7.8-18.2c-1.8-4.1,0-9,4-11L443.7,166.5L443.7,166.5z"/>
<path class="st4" d="M490.8,279.8c-3.4,0.5-6.9,0.8-10.3,0.8c-31.7,0-59.5-20.3-69.1-50.4c-2.6-8.2-9.4-14.3-17.7-15.9
	c-56.8-10.8-98-60.7-98-118.6c0-23.9,7-47,20.2-66.9c2.9-4.4,3.5-9.8,1.5-14.6s-6.3-8.3-11.4-9.3c-25.5-5.1-51.7-6.2-77.8-3.4
	c-52.3,5.6-101,27.2-140.9,62.3c-3.1,2.7-3.4,7.5-0.7,10.6c2.7,3.1,7.5,3.4,10.6,0.7c37.6-33.1,83.4-53.4,132.6-58.7
	c24.6-2.6,49.3-1.6,73.3,3.2c0.2,0,0.4,0.1,0.5,0.3c0.1,0.2,0,0.4-0.1,0.5c-14.9,22.3-22.8,48.3-22.8,75.2
	c0,65.1,46.4,121.1,110.2,133.3c2.9,0.5,5.3,2.8,6.2,5.8c11.7,36.4,45.2,60.8,83.4,60.8c4.2,0,8.4-0.3,12.5-0.9
	c0.6-0.1,0.8,0.2,0.8,0.3c-7.2,44.5-26.9,86-56.8,120c-2.7,3.1-2.4,7.9,0.7,10.6c1.4,1.3,3.2,1.9,4.9,1.9c2.1,0,4.2-0.9,5.6-2.5
	c31.8-36.2,52.7-80.3,60.3-127.5c0.8-4.8-0.7-9.6-4.2-13C500.9,280.8,495.8,279.1,490.8,279.8z"/>
<path class="st4" d="M415,437c-44,38.7-100.4,60-159,60c-33.8,0-66.4-6.8-97-20.3c-29.6-13-55.9-31.6-78.2-55.2
	s-39.3-50.9-50.6-81.1c-11.7-31.4-16.7-64.6-14.8-98.6c3-53,24.2-104.3,59.7-144.7c2.7-3.1,2.4-7.8-0.7-10.6
	c-3.1-2.7-7.8-2.4-10.6,0.7C26.2,130.1,3.7,184.7,0.4,240.9c-2.1,36.1,3.2,71.3,15.7,104.7c12,32.1,30.1,61.1,53.7,86.1
	c23.7,25.1,51.6,44.8,83.1,58.7C185.5,504.7,220.2,512,256,512c62.2,0,122.2-22.6,168.9-63.7c3.1-2.7,3.4-7.5,0.7-10.6
	C422.9,434.6,418.1,434.3,415,437z"/>
</svg>
